HIERARCHY
ROOT Hips
{
	OFFSET 0.000000 0.000000 0.000000
	CHANNELS 6 Xposition Yposition Zposition Zrotation Yrotation Xrotation 
	JOINT LeftUpLeg_virtual
	{
		OFFSET 0.000000 0.000000 0.000000
		CHANNELS 3 Zrotation Yrotation Xrotation
		JOINT LeftUpLeg
		{
			OFFSET 8.479694 -4.795517 -0.379053
			CHANNELS 3 Zrotation Yrotation Xrotation
			JOINT LeftLeg
			{
				OFFSET 0.485052 -32.551468 0.112863
				CHANNELS 3 Zrotation Yrotation Xrotation
				JOINT LeftFoot
				{
					OFFSET 0.438033 -32.635670 -3.012641
					CHANNELS 3 Zrotation Yrotation Xrotation
					JOINT LeftToeBase
					{
						OFFSET 0.970169 -13.225353 11.864223
						CHANNELS 3 Zrotation Yrotation Xrotation
						End Site
						{
							OFFSET 0.000000 0.000000 0.000000
						}
					}
				}
			}
		}
	}
	JOINT RightUpLeg_virtual
	{
		OFFSET 0.000000 0.000000 0.000000
		CHANNELS 3 Zrotation Yrotation Xrotation
		JOINT RightUpLeg
		{
			OFFSET -8.479694 -4.795517 -0.379053
			CHANNELS 3 Zrotation Yrotation Xrotation
			JOINT RightLeg
			{
				OFFSET -0.484100 -32.551483 0.112903
				CHANNELS 3 Zrotation Yrotation Xrotation
				JOINT RightFoot
				{
					OFFSET -0.438985 -32.635651 -3.012681
					CHANNELS 3 Zrotation Yrotation Xrotation
					JOINT RightToeBase
					{
						OFFSET -0.970169 -13.225354 11.864223
						CHANNELS 3 Zrotation Yrotation Xrotation
						End Site
						{
							OFFSET 0.000000 0.000000 0.000000
						}
					}
				}
			}
		}
	}
	JOINT Spine_virtual
	{
		OFFSET 0.000000 0.000000 0.000000
		CHANNELS 3 Zrotation Yrotation Xrotation
		JOINT Spine
		{
			OFFSET 0.000000 7.722015 1.166203
			CHANNELS 3 Zrotation Yrotation Xrotation
			JOINT Spine1
			{
				OFFSET 0.000000 12.024086 0.248766
				CHANNELS 3 Zrotation Yrotation Xrotation
				JOINT Spine2
				{
					OFFSET -0.000000 11.503036 -0.491240
					CHANNELS 3 Zrotation Yrotation Xrotation
					JOINT Neck_virtual
					{
						OFFSET 0.000000 0.000000 0.000000
						CHANNELS 3 Zrotation Yrotation Xrotation
						JOINT Neck
						{
							OFFSET 0.000000 18.430687 -3.123054
							CHANNELS 3 Zrotation Yrotation Xrotation
							JOINT Head
							{
								OFFSET -0.000000 9.051071 1.034021
								CHANNELS 3 Zrotation Yrotation Xrotation
								End Site
								{
									OFFSET 0.000000 0.000000 0.000000
								}
							}
						}
					}
					JOINT LeftShoulder_virtual
					{
						OFFSET 0.000000 0.000000 0.000000
						CHANNELS 3 Zrotation Yrotation Xrotation
						JOINT LeftShoulder
						{
							OFFSET 6.197824 13.665230 -4.064723
							CHANNELS 3 Zrotation Yrotation Xrotation
							JOINT LeftArm
							{
								OFFSET 7.778132 -0.187073 -1.709282
								CHANNELS 3 Zrotation Yrotation Xrotation
								JOINT LeftForeArm
								{
									OFFSET 21.954697 0.000000 -2.041093
									CHANNELS 3 Zrotation Yrotation Xrotation
									JOINT LeftHand
									{
										OFFSET 22.992908 0.000000 -0.870901
										CHANNELS 3 Zrotation Yrotation Xrotation
										End Site
										{
											OFFSET 0.000000 0.000000 0.000000
										}
									}
								}
							}
						}
					}
					JOINT RightShoulder_virtual
					{
						OFFSET 0.000000 0.000000 0.000000
						CHANNELS 3 Zrotation Yrotation Xrotation
						JOINT RightShoulder
						{
							OFFSET -6.197824 13.665230 -4.064723
							CHANNELS 3 Zrotation Yrotation Xrotation
							JOINT RightArm
							{
								OFFSET -7.778132 -0.187073 -1.709282
								CHANNELS 3 Zrotation Yrotation Xrotation
								JOINT RightForeArm
								{
									OFFSET -21.954697 0.000000 -2.041093
									CHANNELS 3 Zrotation Yrotation Xrotation
									JOINT RightHand
									{
										OFFSET -22.992908 0.000000 -0.870901
										CHANNELS 3 Zrotation Yrotation Xrotation
										End Site
										{
											OFFSET 0.000000 0.000000 0.000000
										}
									}
								}
							}
						}
					}
				}
			}
		}
	}
}
MOTION
Frames: 7
Frame Time: 0.033333
44.192078 75.191895 -11.156270 -0.220832 -70.591453 0.176445 -4.443742 1.568143 27.056101 11.853697 -3.086771 -60.963400 1.901421 -1.085493 61.372651 -3.598171 -2.163542 -9.683133 0.000000 0.000000 0.000000 -0.505986 -1.437531 26.013872 -7.787403 6.315669 -59.998540 3.397917 5.134492 68.983572 6.642966 1.418865 -16.416471 0.000000 0.000000 0.000000 2.660508 0.078951 35.821600 -5.405684 -0.595271 21.331019 -0.459850 -2.184150 7.592788 -0.029478 0.061724 -0.024120 -0.134407 -1.691521 11.570276 -3.074875 2.166959 -1.518773 0.000000 0.000000 0.000000 0.655688 -0.420310 6.228660 -6.734748 -24.619545 8.779300 45.713165 -77.284724 -50.894478 -6.553754 -44.850734 10.738425 0.000000 0.000000 0.000000 -3.142577 0.753940 5.962711 30.993619 18.845976 5.063453 21.258475 23.035460 -49.544495 -14.539475 26.968105 2.673541 0.000000 0.000000 0.000000 
44.181091 74.498238 -9.195501 -0.106731 -67.850553 -0.060108 -4.233884 0.844464 26.999132 14.302598 -2.689724 -61.606250 0.964079 -1.298540 58.001789 -3.375942 -1.091938 -9.220617 0.000000 0.000000 0.000000 -0.204603 -2.118122 26.212890 -9.564001 5.719037 -59.455875 3.773917 5.342434 70.669160 6.467474 1.809382 -18.119616 0.000000 0.000000 0.000000 3.016267 -0.573661 35.540842 -5.687214 -0.762014 21.874791 -0.756944 -2.120254 7.807074 -0.003821 -0.017982 -0.002028 -0.510964 -1.809764 11.565424 -3.148557 2.182527 -2.369383 0.000000 0.000000 0.000000 0.322336 -0.231125 6.254104 -6.950747 -24.285991 8.298031 48.048199 -77.750769 -53.645658 -5.796674 -43.910497 10.417773 0.000000 0.000000 0.000000 -3.480464 0.933307 6.090071 30.196341 18.892605 4.763275 21.442382 23.283828 -49.869451 -14.689874 27.434368 2.755798 0.000000 0.000000 0.000000 
44.101017 73.986526 -6.886602 0.237222 -65.826064 -0.247072 -4.140367 0.087524 26.901110 16.418977 -2.227407 -62.348269 -0.010937 -1.438847 53.588507 -3.264322 -0.219797 -8.367891 0.000000 0.000000 0.000000 0.465083 -2.658236 26.281047 -11.898484 4.851774 -58.692027 4.461576 5.915065 71.881266 6.353791 2.272052 -19.034054 0.000000 0.000000 0.000000 3.326027 -0.979011 35.196108 -5.972487 -0.831658 22.227550 -1.080578 -2.025851 7.957097 0.009111 -0.042778 0.042519 -0.775803 -1.342618 11.616889 -2.947562 2.017265 -3.110537 0.000000 0.000000 0.000000 0.081999 -0.178725 6.394265 -6.798576 -23.845584 7.647432 48.882178 -77.830251 -54.932251 -5.063607 -42.977787 10.136884 0.000000 0.000000 0.000000 -3.785150 1.085175 6.195148 29.350494 18.837780 4.481640 21.518970 23.451214 -49.761043 -14.923888 27.930677 2.787020 0.000000 0.000000 0.000000 
43.980309 73.632721 -4.097152 0.437774 -64.554638 -0.430630 -4.009674 -0.179244 26.925656 18.003530 -1.918053 -63.051935 -1.055254 -1.580600 49.424970 -3.254949 0.361022 -7.241494 0.000000 0.000000 0.000000 1.147976 -3.023892 26.329551 -14.701260 4.339250 -57.212069 5.098800 6.709920 72.138163 6.273673 2.720795 -19.292839 0.000000 0.000000 0.000000 3.466494 -1.089830 35.216483 -6.308137 -0.794360 22.548295 -1.420725 -1.850742 8.054935 0.019612 0.019776 0.037735 -0.984165 -1.219976 11.623493 -2.655427 1.810213 -3.736448 0.000000 0.000000 0.000000 -0.082809 -0.161912 6.545004 -6.450106 -23.202901 6.951224 48.135287 -77.649593 -54.637425 -4.427038 -42.119775 9.932219 0.000000 0.000000 0.000000 -4.088402 1.193155 6.304969 28.721396 18.632555 3.989612 21.558157 23.854630 -49.370827 -14.961039 28.500098 3.007169 0.000000 0.000000 0.000000 
43.764980 73.363380 -0.802326 0.167584 -63.394852 0.104635 -3.724239 -0.581185 26.756417 19.020672 -1.728986 -63.757692 -1.948769 -1.559965 46.528157 -3.398704 0.508828 -6.072636 0.000000 0.000000 0.000000 1.946333 -3.416478 26.493165 -18.055031 4.361850 -55.971187 5.961782 7.752362 71.921742 6.768851 3.831188 -17.791444 0.000000 0.000000 0.000000 3.623171 -1.226545 35.388060 -6.513744 -0.727128 22.758370 -1.667510 -1.801704 8.045204 0.025338 -0.043360 0.035784 -1.190763 -1.138713 11.592656 -2.232067 1.688253 -4.135505 0.000000 0.000000 0.000000 -0.191702 -0.072914 6.606587 -6.219209 -22.374122 6.361918 45.274602 -77.121906 -52.435905 -4.109763 -41.326271 10.148815 0.000000 0.000000 0.000000 -4.314731 1.369436 6.441700 28.430627 18.440259 3.559530 21.694824 24.729987 -48.633238 -15.029536 28.882794 3.097437 0.000000 0.000000 0.000000 
43.485954 73.119331 2.902577 0.269231 -62.882833 0.094636 -3.284920 -0.894636 26.712665 19.831246 -2.249121 -64.386014 -2.827093 -2.768099 45.351845 -4.034715 -0.200629 -4.571380 0.000000 0.000000 0.000000 2.757164 -3.815520 26.450772 -21.432990 4.198209 -54.430980 7.005568 9.025835 71.209401 6.957772 4.469319 -14.103717 0.000000 0.000000 0.000000 3.613419 -1.218359 35.862192 -6.661551 -0.573144 23.148561 -1.838618 -1.735323 8.038562 0.027496 0.020092 0.036475 -1.244224 -1.282650 11.464142 -1.575825 1.482088 -4.270120 0.000000 0.000000 0.000000 -0.201722 -0.112276 6.492376 -6.041622 -21.713276 5.805083 42.127995 -75.869550 -50.288299 -3.809212 -40.578560 10.352192 0.000000 0.000000 0.000000 -4.446107 1.372581 6.435220 28.549733 18.054616 2.961857 21.736331 26.437564 -47.389591 -15.069718 29.052254 2.814832 0.000000 0.000000 0.000000 
43.217686 72.913132 6.732354 0.800639 -62.783092 -0.477040 -2.755682 -1.303339 26.615681 20.381665 -3.249316 -64.837101 -3.642890 -3.897819 46.618678 -5.201618 -1.747124 -4.116043 0.000000 0.000000 0.000000 3.181491 -3.631971 26.273378 -24.104190 4.234670 -52.820814 8.107311 10.096569 70.545855 6.008303 4.117408 -11.593216 0.000000 0.000000 0.000000 3.412703 -0.994457 36.564728 -6.771040 -0.279311 23.675492 -1.951349 -1.709886 8.042354 0.054629 -0.034802 0.022059 -1.199418 -0.947045 11.264682 -0.742160 1.171496 -4.140961 0.000000 0.000000 0.000000 -0.159821 -0.115085 6.368065 -6.123867 -20.938751 5.506890 39.612112 -73.909969 -49.290852 -3.715886 -39.696790 10.775122 0.000000 0.000000 0.000000 -4.487922 1.439374 6.242635 29.049303 17.729308 2.569811 21.658388 28.974649 -46.002089 -14.942197 29.128510 2.847495 0.000000 0.000000 0.000000 
